<svg width="24" height="24" viewBox="0 0 24 24" fill="none" xmlns="http://www.w3.org/2000/svg">
<path d="M19.24 3H4.76C4.29322 3 3.84556 3.18543 3.51549 3.51549C3.18543 3.84556 3 4.29322 3 4.76V19.24C3 19.7068 3.18543 20.1544 3.51549 20.4845C3.84556 20.8146 4.29322 21 4.76 21H19.24C19.4711 21 19.7 20.9545 19.9135 20.866C20.1271 20.7776 20.3211 20.6479 20.4845 20.4845C20.6479 20.3211 20.7776 20.1271 20.866 19.9135C20.9545 19.7 21 19.4711 21 19.24V4.76C21 4.52887 20.9545 4.30001 20.866 4.08648C20.7776 3.87294 20.6479 3.67892 20.4845 3.51549C20.3211 3.35206 20.1271 3.22242 19.9135 3.13397C19.7 3.04552 19.4711 3 19.24 3ZM13.44 13H11.19V19.44H9.4V13H7.15V11.54H13.44V13ZM19.24 18.28C19.0952 18.5878 18.862 18.8455 18.57 19.02C18.2628 19.2091 17.9241 19.3412 17.57 19.41C17.1752 19.4915 16.7731 19.5317 16.37 19.53C15.9576 19.5296 15.546 19.4928 15.14 19.42C14.7949 19.3493 14.4593 19.2386 14.14 19.09V17.38L14.08 17.32H14.14V17.39C14.4408 17.6247 14.7788 17.8072 15.14 17.93C15.5007 18.0673 15.8841 18.1352 16.27 18.13C16.4717 18.1335 16.673 18.1134 16.87 18.07C17.0179 18.0354 17.1596 17.978 17.29 17.9C17.3921 17.8378 17.4778 17.7521 17.54 17.65C17.6016 17.5338 17.6286 17.4023 17.618 17.2712C17.6074 17.1401 17.5595 17.0148 17.48 16.91C17.386 16.7782 17.2671 16.6661 17.13 16.58C16.9635 16.463 16.786 16.3625 16.6 16.28L15.93 16C15.3996 15.7816 14.9297 15.4386 14.56 15C14.2506 14.627 14.0871 14.1544 14.1 13.67C14.0883 13.302 14.171 12.9371 14.34 12.61C14.5013 12.3249 14.7274 12.0817 15 11.9C15.3037 11.6979 15.6431 11.5554 16 11.48C16.3902 11.3902 16.7896 11.3466 17.19 11.35C17.5546 11.3449 17.919 11.3683 18.28 11.42C18.5803 11.4669 18.8751 11.544 19.16 11.65V13.3C19.0284 13.2062 18.8877 13.1258 18.74 13.06C18.581 12.9916 18.4172 12.9347 18.25 12.89C18.0897 12.8431 17.9258 12.8096 17.76 12.79C17.607 12.7756 17.453 12.7756 17.3 12.79C17.1116 12.7869 16.9235 12.807 16.74 12.85C16.5895 12.8816 16.4445 12.9355 16.31 13.01C16.205 13.0719 16.1159 13.1575 16.05 13.26C15.9901 13.3596 15.959 13.4738 15.96 13.59C15.9576 13.714 15.9924 13.836 16.06 13.94C16.1421 14.0536 16.2437 14.1518 16.36 14.23C16.501 14.3422 16.6555 14.4363 16.82 14.51L17.45 14.79C17.7397 14.9098 18.0204 15.0501 18.29 15.21C18.5271 15.3397 18.7429 15.505 18.93 15.7C19.1133 15.8776 19.2565 16.0925 19.35 16.33C19.4459 16.603 19.4933 16.8907 19.49 17.18C19.4828 17.5535 19.3977 17.9214 19.24 18.26V18.28Z" fill="#191919"/>
</svg>
