<svg width="24" height="24" viewBox="0 0 24 24" fill="none" xmlns="http://www.w3.org/2000/svg" ><title>Logo Socket IO</title>
<g clip-path="url(#clip0_901_2)">
<path d="M11.936 0.0139771C10.9325 0.0168452 9.93329 0.143809 8.961 0.391977C4.281 1.55498 0.568001 5.79398 0.0910014 10.602C-0.498999 15.15 1.8 19.887 5.735 22.236C9.596 24.654 14.828 24.556 18.609 22.013C22.006 19.807 24.121 15.785 23.995 11.728C23.937 7.71198 21.685 3.81198 18.235 1.74798C16.355 0.588977 14.144 0.00597705 11.937 0.0149771L11.936 0.0139771ZM11.873 1.70998C16.818 1.70298 21.662 5.52298 22.155 10.634C23.1 16.294 18.402 22.047 12.667 22.214C7.213 22.758 1.943 18.134 1.787 12.657C1.381 8.22298 4.304 3.82198 8.485 2.35698C9.56292 1.92795 10.7128 1.70869 11.873 1.71098V1.70998ZM16.964 4.93398C14.277 7.01898 11.704 9.24198 9.075 11.391C10.278 11.408 11.487 11.407 12.696 11.401C14.106 9.23598 15.556 7.10098 16.964 4.93398ZM11.299 12.588C9.889 14.754 8.439 16.897 7.029 19.062C9.722 16.982 12.284 14.742 14.931 12.606C13.7204 12.5914 12.5097 12.5854 11.299 12.588V12.588Z"  style="fill:#191919;"/>
</g>
<defs>
<clipPath id="clip0_901_2">
<rect width="24" height="24" fill="white"/>
</clipPath>
</defs>
</svg>
